<?xml version="1.0" encoding="UTF-8" standalone="no"?>
<svg
   xmlns:dc="http://purl.org/dc/elements/1.1/"
   xmlns:cc="http://creativecommons.org/ns#"
   xmlns:rdf="http://www.w3.org/1999/02/22-rdf-syntax-ns#"
   xmlns:svg="http://www.w3.org/2000/svg"
   xmlns="http://www.w3.org/2000/svg"
   xmlns:sodipodi="http://sodipodi.sourceforge.net/DTD/sodipodi-0.dtd"
   xmlns:inkscape="http://www.inkscape.org/namespaces/inkscape"
   viewBox="0 0 383.92 228.35"
   version="1.1"
   id="svg40"
   sodipodi:docname="reachout_logo.svg"
   inkscape:export-filename="/home/jason/reachout/breathe/assets/images/reachout_logo.svg.png"
   inkscape:export-xdpi="187.53906"
   inkscape:export-ydpi="187.53906"
   inkscape:version="0.92.2 2405546, 2018-03-11">
  <metadata
     id="metadata44">
    <rdf:RDF>
      <cc:Work
         rdf:about="">
        <dc:format>image/svg+xml</dc:format>
        <dc:type
           rdf:resource="http://purl.org/dc/dcmitype/StillImage" />
      </cc:Work>
    </rdf:RDF>
  </metadata>
  <sodipodi:namedview
     pagecolor="#ffffff"
     bordercolor="#666666"
     borderopacity="1"
     objecttolerance="10"
     gridtolerance="10"
     guidetolerance="10"
     inkscape:pageopacity="0"
     inkscape:pageshadow="2"
     inkscape:window-width="1920"
     inkscape:window-height="1024"
     id="namedview42"
     showgrid="false"
     inkscape:zoom="0.76578451"
     inkscape:cx="-118.17946"
     inkscape:cy="114.175"
     inkscape:window-x="0"
     inkscape:window-y="31"
     inkscape:window-maximized="1"
     inkscape:current-layer="Layer_1-2" />
  <defs
     id="defs4">
    <style
       id="style2">.cls-1{fill:#fff;}</style>
  </defs>
  <title
     id="title6">Asset 1</title>
  <g
     id="Layer_2"
     data-name="Layer 2">
    <g
       id="Layer_1-2"
       data-name="Layer 1">
      <path
         class="cls-1"
         d="M383.92,228.35H0V0H383.92ZM12.17,12.17,9.85,30.44,8.52,216.18,62.07,214l185,1,125.3,3.59,1.12-113.68L378,45.28l-.15-39.19Z"
         id="path8"
         style="fill:#0073cf;fill-opacity:1"
         inkscape:export-xdpi="187.53906"
         inkscape:export-ydpi="187.53906" />
      <path
         class="cls-1"
         d="M70.27,36.41a21.24,21.24,0,0,1,8,1.43,18.43,18.43,0,0,1,6.1,3.93,17.06,17.06,0,0,1,3.88,5.77,18.53,18.53,0,0,1,1.34,7.07,19.84,19.84,0,0,1-2.45,10.07,15.38,15.38,0,0,1-8,6.47v.19a11.21,11.21,0,0,1,4.43,2.26,12.57,12.57,0,0,1,2.86,3.6,16.79,16.79,0,0,1,1.62,4.57,40.13,40.13,0,0,1,.69,5q.09,1.57.18,3.69t.32,4.34A29,29,0,0,0,90,99a9.67,9.67,0,0,0,1.52,3.37H77a25.53,25.53,0,0,1-1.48-7.48q-.28-4.34-.83-8.31Q74,81.4,71.57,79t-7.85-2.4H49.21v25.77H34.71v-66ZM65.1,66.25q5,0,7.48-2.22t2.49-7.2q0-4.8-2.49-7T65.1,47.68H49.21V66.25Z"
         id="path10"
         style="fill:#0073cf;fill-opacity:1"
         inkscape:export-xdpi="187.53906"
         inkscape:export-ydpi="187.53906" />
      <path
         class="cls-1"
         d="M150.73,36.41V48.61H115.9V62.74h32V74h-32V90.17h35.56v12.19H101.4v-66Z"
         id="path12"
         style="fill:#0073cf;fill-opacity:1"
         inkscape:export-xdpi="187.53906"
         inkscape:export-ydpi="187.53906" />
      <path
         class="cls-1"
         d="M194.14,36.41l24.66,66H203.75l-5-14.69H174.09l-5.17,14.69H154.33l24.94-66ZM195,76.87l-8.31-24.2h-.19l-8.59,24.2Z"
         id="path14"
         style="fill:#0073cf;fill-opacity:1"
         inkscape:export-xdpi="187.53906"
         inkscape:export-ydpi="187.53906" />
      <path
         class="cls-1"
         d="M266.83,54a14.6,14.6,0,0,0-3.23-3.65A15.14,15.14,0,0,0,254.09,47a16.94,16.94,0,0,0-8.31,1.89A15.68,15.68,0,0,0,240.23,54a22.25,22.25,0,0,0-3.09,7.25,36.1,36.1,0,0,0-1,8.41,33.57,33.57,0,0,0,1,8.08,21.81,21.81,0,0,0,3.09,7.07,15.82,15.82,0,0,0,5.54,5,16.93,16.93,0,0,0,8.31,1.89q6.65,0,10.39-4.06A18.8,18.8,0,0,0,269.05,77h14a33.57,33.57,0,0,1-2.86,11.18,26.78,26.78,0,0,1-6.1,8.5,25.92,25.92,0,0,1-8.87,5.36,32.52,32.52,0,0,1-11.18,1.85,33.82,33.82,0,0,1-13.62-2.63A29.17,29.17,0,0,1,230.26,94a32.09,32.09,0,0,1-6.37-10.85,39.84,39.84,0,0,1-2.22-13.44A41.22,41.22,0,0,1,223.88,56a33,33,0,0,1,6.37-11,29.14,29.14,0,0,1,10.21-7.39,35.36,35.36,0,0,1,23.92-1.11A27.92,27.92,0,0,1,273.07,41a24.74,24.74,0,0,1,6.33,7.44,26.6,26.6,0,0,1,3.14,10.16h-14A11.85,11.85,0,0,0,266.83,54Z"
         id="path16"
         style="fill:#0073cf;fill-opacity:1"
         inkscape:export-xdpi="187.53906"
         inkscape:export-ydpi="187.53906" />
      <path
         class="cls-1"
         d="M307.48,36.41V61.72h26.69V36.41h14.5v66h-14.5V73.92H307.48v28.45H293v-66Z"
         id="path18"
         style="fill:#0073cf;fill-opacity:1"
         inkscape:export-xdpi="187.53906"
         inkscape:export-ydpi="187.53906" />
      <path
         class="cls-1"
         d="M34.06,141.32a33,33,0,0,1,6.37-11,29.15,29.15,0,0,1,10.21-7.39,33.32,33.32,0,0,1,13.62-2.68,33.24,33.24,0,0,1,13.67,2.68,29.26,29.26,0,0,1,10.16,7.39,33,33,0,0,1,6.37,11A41.21,41.21,0,0,1,96.69,155a39.83,39.83,0,0,1-2.22,13.44,32.09,32.09,0,0,1-6.37,10.85,29.29,29.29,0,0,1-10.16,7.25,33.74,33.74,0,0,1-13.67,2.63,33.82,33.82,0,0,1-13.62-2.63,29.19,29.19,0,0,1-10.21-7.25,32.11,32.11,0,0,1-6.37-10.85A39.83,39.83,0,0,1,31.85,155,41.21,41.21,0,0,1,34.06,141.32Zm13.25,21.8a21.78,21.78,0,0,0,3.09,7.07,15.82,15.82,0,0,0,5.54,5,16.91,16.91,0,0,0,8.31,1.89,16.92,16.92,0,0,0,8.31-1.89,15.85,15.85,0,0,0,5.54-5,21.82,21.82,0,0,0,3.09-7.07,33.58,33.58,0,0,0,1-8.08,36.1,36.1,0,0,0-1-8.41,22.27,22.27,0,0,0-3.09-7.25,15.72,15.72,0,0,0-5.54-5.08,17,17,0,0,0-8.31-1.89A16.94,16.94,0,0,0,56,134.29a15.7,15.7,0,0,0-5.54,5.08,22.23,22.23,0,0,0-3.09,7.25,36.1,36.1,0,0,0-1,8.41A33.59,33.59,0,0,0,47.32,163.12Z"
         id="path20"
         style="fill:#0073cf;fill-opacity:1"
         inkscape:export-xdpi="187.53906"
         inkscape:export-ydpi="187.53906" />
      <path
         class="cls-1"
         d="M155.07,182.7q-7.48,6.51-20.69,6.51-13.39,0-20.74-6.47t-7.34-20v-41h14.5v41a29.77,29.77,0,0,0,.46,5.26,10.24,10.24,0,0,0,6,7.81,16.71,16.71,0,0,0,7.07,1.25q7.76,0,10.71-3.46t3-10.85v-41h14.5v41Q162.55,176.19,155.07,182.7Z"
         id="path22"
         style="fill:#0073cf;fill-opacity:1"
         inkscape:export-xdpi="187.53906"
         inkscape:export-ydpi="187.53906" />
      <path
         class="cls-1"
         d="M169.85,134V121.78h54V134H204.12v53.76h-14.5V134Z"
         id="path24"
         style="fill:#0073cf;fill-opacity:1"
         inkscape:export-xdpi="187.53906"
         inkscape:export-ydpi="187.53906" />
      <rect
         class="cls-1"
         x="222.04"
         y="176.1"
         width="11.64"
         height="11.64"
         id="rect26"
         style="fill:#0073cf;fill-opacity:1"
         inkscape:export-xdpi="187.53906"
         inkscape:export-ydpi="187.53906" />
      <path
         class="cls-1"
         d="M261.89,153a4.09,4.09,0,0,0-4-2.1,4,4,0,0,0-2.63.86,5.69,5.69,0,0,0-1.63,2.78,23.61,23.61,0,0,0-.83,5q-.24,3.11-.24,7.6a73.8,73.8,0,0,0,.33,7.75,17.09,17.09,0,0,0,1,4.58,4.18,4.18,0,0,0,1.71,2.19,4.92,4.92,0,0,0,2.4.56,5.66,5.66,0,0,0,2.1-.38,3.56,3.56,0,0,0,1.69-1.54,10,10,0,0,0,1.12-3.25,29.73,29.73,0,0,0,.41-5.53h8.52a38.06,38.06,0,0,1-.53,6.51,14.75,14.75,0,0,1-2,5.38,9.85,9.85,0,0,1-4.08,3.61,15.47,15.47,0,0,1-6.83,1.3,16.07,16.07,0,0,1-7.63-1.54,10.37,10.37,0,0,1-4.35-4.44,19.54,19.54,0,0,1-2-6.92,88.69,88.69,0,0,1,0-17.71,19.6,19.6,0,0,1,2-6.95,10.94,10.94,0,0,1,4.35-4.53,15.34,15.34,0,0,1,7.63-1.63,14.73,14.73,0,0,1,7.19,1.48,10.07,10.07,0,0,1,3.93,3.76,13,13,0,0,1,1.63,4.91,40.61,40.61,0,0,1,.33,4.94H263Q263,155.08,261.89,153Z"
         id="path28"
         style="fill:#0073cf;fill-opacity:1"
         inkscape:export-xdpi="187.53906"
         inkscape:export-ydpi="187.53906" />
      <path
         class="cls-1"
         d="M276.26,157.71a19.59,19.59,0,0,1,2-6.95,10.94,10.94,0,0,1,4.35-4.53,18.71,18.71,0,0,1,15.26,0,10.94,10.94,0,0,1,4.35,4.53,19.57,19.57,0,0,1,2,6.95,88.51,88.51,0,0,1,0,17.71,19.52,19.52,0,0,1-2,6.92,10.37,10.37,0,0,1-4.35,4.44,19.69,19.69,0,0,1-15.26,0,10.37,10.37,0,0,1-4.35-4.44,19.54,19.54,0,0,1-2-6.92,88.71,88.71,0,0,1,0-17.71Zm8.28,16.09a20.14,20.14,0,0,0,.83,4.85,5.39,5.39,0,0,0,1.78,2.72,5.84,5.84,0,0,0,6.09,0,5.39,5.39,0,0,0,1.77-2.72,20.13,20.13,0,0,0,.83-4.85q.21-3,.21-7.25t-.21-7.22a20.5,20.5,0,0,0-.83-4.85,5.4,5.4,0,0,0-1.77-2.75,5.84,5.84,0,0,0-6.09,0,5.4,5.4,0,0,0-1.78,2.75,20.51,20.51,0,0,0-.83,4.85q-.21,3-.21,7.22T284.54,173.8Z"
         id="path30"
         style="fill:#0073cf;fill-opacity:1"
         inkscape:export-xdpi="187.53906"
         inkscape:export-ydpi="187.53906" />
      <path
         class="cls-1"
         d="M322.43,145.44l6,29.81h.12l6.09-29.81h12.6v42.23h-7.81V154h-.12l-7.51,33.71h-6.62L317.69,154h-.12v33.71h-7.81V145.44Z"
         id="path32"
         style="fill:#0073cf;fill-opacity:1"
         inkscape:export-xdpi="187.53906"
         inkscape:export-ydpi="187.53906" />
      <path
         class="cls-1"
         d="M356.09,37.41h-1.61v-1h4.41v1h-1.61V41.8h-1.18Z"
         id="path34"
         style="fill:#0073cf;fill-opacity:1"
         inkscape:export-xdpi="187.53906"
         inkscape:export-ydpi="187.53906" />
      <path
         class="cls-1"
         d="M359.5,36.41h1.67l1.26,3.7h0l1.19-3.7h1.67V41.8h-1.11V38h0l-1.32,3.81h-.91L360.63,38h0V41.8H359.5Z"
         id="path36"
         style="fill:#0073cf;fill-opacity:1"
         inkscape:export-xdpi="187.53906"
         inkscape:export-ydpi="187.53906" />
    </g>
  </g>
</svg>
